<?xml version="1.0" encoding="UTF-8"?>
<!DOCTYPE svg PUBLIC "-//W3C//DTD SVG 1.1//EN" "http://www.w3.org/Graphics/SVG/1.1/DTD/svg11.dtd">
<svg xmlns="http://www.w3.org/2000/svg" version="1.1" width="1000px" height="1000px" style="shape-rendering:geometricPrecision; text-rendering:geometricPrecision; image-rendering:optimizeQuality; fill-rule:evenodd; clip-rule:evenodd" xmlns:xlink="http://www.w3.org/1999/xlink">
<g><path style="opacity:1" fill="#fefefe" d="M 915.5,185.5 C 915.427,187.027 916.094,188.027 917.5,188.5C 925.5,197.964 930.334,208.964 932,221.5C 932.5,293.833 932.667,366.166 932.5,438.5C 918.833,438.5 905.167,438.5 891.5,438.5C 891.5,391.833 891.5,345.167 891.5,298.5C 611.334,297.5 331,297.167 50.5,297.5C 50.167,451.001 50.5004,604.334 51.5,757.5C 55.1562,774.322 65.4896,784.156 82.5,787C 195.833,787.5 309.166,787.667 422.5,787.5C 422.5,801.167 422.5,814.833 422.5,828.5C 305.833,828.667 189.166,828.5 72.5,828C 61.351,826.249 51.351,822.082 42.5,815.5C 42.0269,814.094 41.0269,813.427 39.5,813.5C 22.7764,801.075 12.9431,784.408 10,763.5C 9.33333,583.5 9.33333,403.5 10,223.5C 16.6329,188.201 37.4662,166.701 72.5,159C 177.499,158.5 282.499,158.333 387.5,158.5C 387.172,132.481 387.672,106.481 389,80.5C 389.578,72.7003 390.911,65.0337 393,57.5C 394.003,54.1598 395.503,51.1598 397.5,48.5C 398.906,48.0269 399.573,47.0269 399.5,45.5C 403.116,40.4485 408.116,37.9485 414.5,38C 452.167,37.3333 489.833,37.3333 527.5,38C 536.712,38.5406 543.212,43.0406 547,51.5C 551.45,63.7545 553.783,76.4211 554,89.5C 554.5,112.498 554.667,135.498 554.5,158.5C 659.501,158.333 764.501,158.5 869.5,159C 888.362,161.924 903.695,170.757 915.5,185.5 Z M 431.5,79.5 C 458.227,78.8475 484.727,79.5142 511,81.5C 512.455,139.814 512.955,198.147 512.5,256.5C 484.833,256.5 457.167,256.5 429.5,256.5C 429.333,202.832 429.5,149.166 430,95.5C 430.391,90.1456 430.891,84.8123 431.5,79.5 Z M 82.5,199.5 C 184.167,199.5 285.833,199.5 387.5,199.5C 387.5,218.5 387.5,237.5 387.5,256.5C 275.5,256.5 163.5,256.5 51.5,256.5C 51.3335,246.494 51.5002,236.494 52,226.5C 56.7631,211.229 66.9298,202.229 82.5,199.5 Z M 877.5,206.5 C 877.973,207.906 878.973,208.573 880.5,208.5C 884.706,213.551 887.873,219.218 890,225.5C 891.266,235.793 891.766,246.126 891.5,256.5C 779.167,256.5 666.833,256.5 554.5,256.5C 554.5,237.5 554.5,218.5 554.5,199.5C 656.167,199.333 757.834,199.5 859.5,200C 866.089,200.695 872.089,202.862 877.5,206.5 Z"/></g>
<g><path style="opacity:0.91" fill="#d1d1d1" d="M 399.5,45.5 C 399.573,47.0269 398.906,48.0269 397.5,48.5C 397.427,46.9731 398.094,45.9731 399.5,45.5 Z"/></g>
<g><path style="opacity:0.992" fill="#d2d2d2" d="M 915.5,185.5 C 916.906,185.973 917.573,186.973 917.5,188.5C 916.094,188.027 915.427,187.027 915.5,185.5 Z"/></g>
<g><path style="opacity:0.984" fill="#d2d2d2" d="M 877.5,206.5 C 879.027,206.427 880.027,207.094 880.5,208.5C 878.973,208.573 877.973,207.906 877.5,206.5 Z"/></g>
<g><path style="opacity:0.765" fill="#c6c6c6" d="M 891.5,298.5 C 611.5,298.5 331.5,298.5 51.5,298.5C 51.5,451.5 51.5,604.5 51.5,757.5C 50.5004,604.334 50.167,451.001 50.5,297.5C 331,297.167 611.334,297.5 891.5,298.5 Z"/></g>
<g><path style="opacity:1" fill="#fefefe" d="M 342.5,388.5 C 342.427,390.027 343.094,391.027 344.5,391.5C 356.282,405.399 364.115,421.399 368,439.5C 373.661,476.085 372.328,512.418 364,548.5C 361.62,557.643 358.453,566.477 354.5,575C 379.097,580.189 401.43,590.189 421.5,605C 439.76,621.87 448.76,642.87 448.5,668C 447.374,701.78 430.374,722.114 397.5,729C 391.856,729.757 386.189,730.257 380.5,730.5C 293.839,729.688 207.173,729.188 120.5,729C 114.881,727.524 109.881,725.024 105.5,721.5C 105.027,720.094 104.027,719.427 102.5,719.5C 101.833,719.5 101.5,719.167 101.5,718.5C 101.027,717.094 100.027,716.427 98.5,716.5C 84.6074,703.868 77.6074,688.035 77.5,669C 78.5381,651.553 83.0381,635.053 91,619.5C 105.299,600.416 124.132,587.916 147.5,582C 154.722,579.86 162.055,578.36 169.5,577.5C 171.424,577.289 171.757,576.623 170.5,575.5C 155.03,543.454 146.363,509.621 144.5,474C 145.87,409.641 177.536,368.974 239.5,352C 281.392,343.46 315.726,355.627 342.5,388.5 Z"/></g>
<g><path style="opacity:0.984" fill="#d0d0d0" d="M 342.5,388.5 C 343.906,388.973 344.573,389.973 344.5,391.5C 343.094,391.027 342.427,390.027 342.5,388.5 Z"/></g>
<g><path style="opacity:1" fill="#fdfdfd" d="M 939.5,568.5 C 939.427,570.027 940.094,571.027 941.5,571.5C 942.974,572.436 943.974,573.77 944.5,575.5C 944.427,577.027 945.094,578.027 946.5,578.5C 981.638,629.722 995.471,686.389 988,748.5C 976.543,823.964 939.043,882.464 875.5,924C 803.433,966.259 728.433,972.259 650.5,942C 632.824,934.506 616.491,925.006 601.5,913.5C 601.027,912.094 600.027,911.427 598.5,911.5C 541.098,867.057 508.932,808.39 502,735.5C 497.54,661.161 521.04,597.494 572.5,544.5C 574.749,543.92 576.415,542.587 577.5,540.5C 620.035,499.581 671.035,477.081 730.5,473C 807.691,469.828 872.858,495.995 926,551.5C 930.99,556.833 935.49,562.5 939.5,568.5 Z M 855.5,546.5 C 855.973,547.906 856.973,548.573 858.5,548.5C 858.973,549.906 859.973,550.573 861.5,550.5C 864.19,553.185 867.19,555.518 870.5,557.5C 870.973,558.906 871.973,559.573 873.5,559.5C 941.978,621.389 962.811,696.722 936,785.5C 931.215,798.401 925.381,810.734 918.5,822.5C 917.094,822.973 916.427,823.973 916.5,825.5C 914.808,827.205 913.475,829.205 912.5,831.5C 911.094,831.973 910.427,832.973 910.5,834.5C 857.957,901.641 789.291,928.475 704.5,915C 633.1,897.929 583.6,855.429 556,787.5C 531.68,715.125 542.68,648.791 589,588.5C 639.072,531.566 701.905,507.733 777.5,517C 805.57,521.63 831.57,531.464 855.5,546.5 Z M 837.5,619.5 C 843.237,622.074 847.404,626.074 850,631.5C 849.282,632.451 848.449,632.617 847.5,632C 843.833,628.333 840.167,624.667 836.5,621C 837.056,620.617 837.389,620.117 837.5,619.5 Z M 806.5,652.5 C 811.239,655.731 815.572,659.564 819.5,664C 780.731,705.524 741.731,746.858 702.5,788C 698.717,786.252 695.384,783.586 692.5,780C 731.078,737.927 769.078,695.427 806.5,652.5 Z"/></g>
<g><path style="opacity:0.992" fill="#d8d8d8" d="M 577.5,540.5 C 576.415,542.587 574.749,543.92 572.5,544.5C 573.585,542.413 575.251,541.08 577.5,540.5 Z"/></g>
<g><path style="opacity:0.871" fill="#d0d0d0" d="M 855.5,546.5 C 857.027,546.427 858.027,547.094 858.5,548.5C 856.973,548.573 855.973,547.906 855.5,546.5 Z"/></g>
<g><path style="opacity:0.898" fill="#d1d1d1" d="M 858.5,548.5 C 860.027,548.427 861.027,549.094 861.5,550.5C 859.973,550.573 858.973,549.906 858.5,548.5 Z"/></g>
<g><path style="opacity:0.898" fill="#cfcfcf" d="M 870.5,557.5 C 872.027,557.427 873.027,558.094 873.5,559.5C 871.973,559.573 870.973,558.906 870.5,557.5 Z"/></g>
<g><path style="opacity:0.992" fill="#d1d1d1" d="M 939.5,568.5 C 940.906,568.973 941.573,569.973 941.5,571.5C 940.094,571.027 939.427,570.027 939.5,568.5 Z"/></g>
<g><path style="opacity:0.663" fill="#bbbbbb" d="M 170.5,575.5 C 171.757,576.623 171.424,577.289 169.5,577.5C 169.833,576.833 170.167,576.167 170.5,575.5 Z"/></g>
<g><path style="opacity:1" fill="#fdfdfd" d="M 678.5,733.5 C 679.906,733.027 680.573,732.027 680.5,730.5C 705.826,701.842 731.492,673.509 757.5,645.5C 758.906,645.027 759.573,644.027 759.5,642.5C 776.225,622.603 793.891,603.436 812.5,585C 828.099,574.589 844.099,573.922 860.5,583C 871.59,590.755 881.423,599.921 890,610.5C 897.904,625.013 897.237,639.013 888,652.5C 830.384,713.571 772.884,774.738 715.5,836C 690.438,847.684 664.938,858.184 639,867.5C 623.523,865.023 616.856,856.023 619,840.5C 627.667,817.167 636.333,793.833 645,770.5C 655.716,757.716 666.883,745.382 678.5,733.5 Z M 837.5,619.5 C 837.389,620.117 837.056,620.617 836.5,621C 840.167,624.667 843.833,628.333 847.5,632C 848.449,632.617 849.282,632.451 850,631.5C 847.404,626.074 843.237,622.074 837.5,619.5 Z M 806.5,652.5 C 769.078,695.427 731.078,737.927 692.5,780C 695.384,783.586 698.717,786.252 702.5,788C 741.731,746.858 780.731,705.524 819.5,664C 815.572,659.564 811.239,655.731 806.5,652.5 Z"/></g>
<g><path style="opacity:0.906" fill="#d1d1d1" d="M 944.5,575.5 C 945.906,575.973 946.573,576.973 946.5,578.5C 945.094,578.027 944.427,577.027 944.5,575.5 Z"/></g>
<g><path style="opacity:0.976" fill="#cfcfcf" d="M 759.5,642.5 C 759.573,644.027 758.906,645.027 757.5,645.5C 757.427,643.973 758.094,642.973 759.5,642.5 Z"/></g>
<g><path style="opacity:0.988" fill="#d1d1d1" d="M 98.5,716.5 C 100.027,716.427 101.027,717.094 101.5,718.5C 99.9731,718.573 98.9731,717.906 98.5,716.5 Z"/></g>
<g><path style="opacity:0.902" fill="#d1d1d1" d="M 102.5,719.5 C 104.027,719.427 105.027,720.094 105.5,721.5C 103.973,721.573 102.973,720.906 102.5,719.5 Z"/></g>
<g><path style="opacity:0.976" fill="#cfcfcf" d="M 680.5,730.5 C 680.573,732.027 679.906,733.027 678.5,733.5C 678.427,731.973 679.094,730.973 680.5,730.5 Z"/></g>
<g><path style="opacity:0.898" fill="#d1d1d1" d="M 39.5,813.5 C 41.0269,813.427 42.0269,814.094 42.5,815.5C 40.9731,815.573 39.9731,814.906 39.5,813.5 Z"/></g>
<g><path style="opacity:0.863" fill="#cfcfcf" d="M 918.5,822.5 C 918.573,824.027 917.906,825.027 916.5,825.5C 916.427,823.973 917.094,822.973 918.5,822.5 Z"/></g>
<g><path style="opacity:0.898" fill="#d1d1d1" d="M 912.5,831.5 C 912.573,833.027 911.906,834.027 910.5,834.5C 910.427,832.973 911.094,831.973 912.5,831.5 Z"/></g>
<g><path style="opacity:0.886" fill="#cfcfcf" d="M 598.5,911.5 C 600.027,911.427 601.027,912.094 601.5,913.5C 599.973,913.573 598.973,912.906 598.5,911.5 Z"/></g>
</svg>
