<svg xmlns="http://www.w3.org/2000/svg" xmlns:xlink="http://www.w3.org/1999/xlink" version="1.1" fill="#cae6fc"
    x="0px" y="0px" viewBox="0 0 100 125" enable-background="new 0 0 100 100" xml:space="preserve"><g><path d="M5,32.5h25v26.8v3l11.4-6.6l12.4,21.5l9.2-5.3v-3L51.9,49.7L62,43.9v-3l-14.5-8.4H95V5H5V32.5z M57,40.9l-7.7,4.4l-2.2,1.3   l1.3,2.2L59.5,68l-4.8,2.8L43.6,51.5l-1.2-2.2l-2.2,1.2L32.5,55V26.7L57,40.9z M7.5,7.5h85v20H38.8L30,22.4v3v2.1H7.5V7.5z"/><polygon points="28.2,9.5 25.9,11.8 20,17.7 15.6,13.3 14.3,12 10.7,15.5 20,24.8 31.8,13  "/><rect x="45" y="11.3" width="40" height="2.5"/><rect x="35" y="16.3" width="50" height="2.5"/><rect x="35" y="21.3" width="45" height="2.5"/></g></svg>